<?xml version="1.0" encoding="utf-8"?>
<!-- Generator: Adobe Illustrator 24.2.1, SVG Export Plug-In . SVG Version: 6.00 Build 0)  -->
<svg version="1.1" id="Layer_1" xmlns="http://www.w3.org/2000/svg" xmlns:xlink="http://www.w3.org/1999/xlink" x="0px" y="0px"
	 viewBox="0 0 62.2 57.7" style="enable-background:new 0 0 62.2 57.7;" xml:space="preserve">
<style type="text/css">
	.st0{fill:#7BD3F7;}
	.st1{fill:#008AD0;}
	.st2{fill:#BE1E2D;}
	.st3{fill:#005496;}
</style>
<g>
	<path class="st0" d="M7.2,55.9L7.2,55.9c1.3,1.3,3.5,1.3,4.7-0.1l41.4-44.4c1.3-1.4,1.2-3.6-0.1-4.9l0,0c-1.3-1.3-3.5-1.3-4.7,0.1
		L7.1,51C5.8,52.4,5.9,54.6,7.2,55.9z"/>
	<path class="st1" d="M5.5,55.3L5.5,55.3c0.6,1.8,2.6,2.7,4.3,2l44.7-17.3c1.7-0.7,2.6-2.7,2-4.5l0,0c-0.6-1.8-2.6-2.7-4.3-2
		L7.5,50.9C5.8,51.5,4.9,53.5,5.5,55.3z"/>
	<path class="st2" d="M21,2.7L21,2.7c-0.4,1.9,0.8,3.7,2.7,4.1l27.2,5.4c1.8,0.4,3.6-0.9,3.9-2.7v0c0.4-1.9-0.8-3.7-2.7-4.1L24.9,0
		C23.1-0.4,21.4,0.8,21,2.7z"/>
	<path class="st3" d="M22,0.8L22,0.8c-1.4,1.3-1.5,3.5-0.3,4.9l29.1,33.5c1.2,1.4,3.4,1.5,4.7,0.3l0,0c1.4-1.3,1.5-3.5,0.3-4.9
		L26.7,1.1C25.5-0.4,23.4-0.5,22,0.8z"/>
</g>
</svg>
