<?xml version="1.0" encoding="utf-8"?>
<!-- Generator: Adobe Illustrator 24.2.1, SVG Export Plug-In . SVG Version: 6.00 Build 0)  -->
<svg version="1.1" id="Layer_1" xmlns="http://www.w3.org/2000/svg" xmlns:xlink="http://www.w3.org/1999/xlink" x="0px" y="0px"
	 viewBox="0 0 62.2 57.7" style="enable-background:new 0 0 62.2 57.7;" xml:space="preserve">
<style type="text/css">
	.st0{fill:#253677;}
</style>
<g id="Layer_2_1_">
	<g>
		<g id="Layer_1-2_8_">
			<path class="st0" d="M53.1,46.4c-0.5,0.9-1.3,1.6-2.2,2.1c-2,1.1-4.3,0.4-6.1-0.9c-1.4-1.1-1.9-2.5-2.6-4.1
				c-0.9-2-2.4-3.7-4.4-4.8c-1.9-1.2-4.2-1.9-6.4-1.9c-2.4,0-4.8,0.6-6.9,1.7c-2,1-3.6,2.7-4.5,4.8c-0.6,1.5-1.1,3-2.5,4.1
				c-1.7,1.4-4,2.1-6.1,1c-0.9-0.5-1.7-1.2-2.3-2.1c-0.5-0.9-0.7-2-0.7-3c0.1-2.3,1.8-3.9,3.8-4.8c1.3-0.5,2.8-0.6,4.2-0.3
				c1.6,0.3,3.3,0.2,4.9-0.4c3.2-1.2,6.4-3.7,7.7-7L28.9,31c1.2-2.5,1.5-5.3,1-8c-0.3-1.6-1-3.1-2.1-4.3c-1-1.1-1.6-2.4-1.8-3.9
				c-0.3-1.9,0.3-3.9,1.8-5.2c1.3-1.1,3.2-1.5,4.9-1c1.5,0.4,2.7,1.5,3.3,2.9c0.7,1.8,0.6,3.8-0.3,5.5c-0.6,1.2-1.7,2.1-2.4,3.3
				c-1,2.1-1.4,4.5-1.1,6.8c0.5,4,2.7,7.5,6.1,9.6c1.9,1.3,4.1,1.9,6.4,1.7c1.5-0.2,3-0.6,4.5-0.1c2,0.6,4.1,2.1,4.5,4.3
				C53.8,43.9,53.6,45.2,53.1,46.4L53.1,46.4 M56.2,32.1c-2.3-1.4-4.8-2.1-7.5-2.3c-1.7-0.1-3.6,0.2-5.2-0.4
				c-0.9-0.3-1.7-0.9-2.2-1.7c-0.4-0.7-0.5-1.4-0.4-2.2c0.2-1.7,1.2-3.1,2-4.5c2.3-4,3-9.1,0.9-13.3C41.5,3.3,37,0.3,32,0
				c-5.1-0.3-9.9,2-12.8,6.2c-2.7,4-2.6,9.3-0.5,13.6c0.7,1.4,1.7,2.7,2.3,4.2c0.4,1.1,0.5,2.3,0.1,3.4c-0.3,0.7-0.8,1.3-1.5,1.6
				c-1.7,1-3.6,0.8-5.4,0.8c-2.5,0-4.9,0.6-7.1,1.7c-2.2,1.1-4.1,2.8-5.3,4.9C0.6,38.5,0,40.8,0,43.3c0,5.1,2.8,9.9,7.2,12.5
				c2.8,1.7,6.2,2.3,9.4,1.6c2.5-0.7,4.8-2,6.7-3.8c1.3-1.5,2.4-3.2,3.5-4.9c0.4-0.7,1-1.4,1.6-2.1c1.3-1.5,3.5-1.7,5-0.5
				c0.2,0.1,0.3,0.3,0.5,0.5c0.6,0.6,1.1,1.3,1.5,2.1c0.9,1.8,2.1,3.4,3.4,4.9c1.8,1.8,4.1,3.1,6.6,3.8c2.2,0.5,4.5,0.4,6.6-0.3
				c4.8-1.5,8.5-5.4,9.7-10.3c1.2-4.8-0.2-9.8-3.7-13.2C57.5,32.9,56.8,32.5,56.2,32.1"/>
		</g>
	</g>
</g>
</svg>
